# xmcd
#
# Track frame offsets:
#	150
#	14775
#	28445
#	41007
#	52160
#	65477
#	76327
#	90732
#	103062
#	114170
#	126917
#	138455
#	151570
#	164707
#	177837
#	189280
#	202767
#	217140
#	227657
#	240070
#	249960
#	259645
#	272492
#	287262
#	298417
#	309235
#	322492
#	334967
#
# Disc length: 4611 seconds
#
# Revision: 0
# Processed by: cddbd v1.5.1PL2 Copyright (c) Steve Scherf et al.
# Submitted via: audiograbber 1.83.01
#
DISCID=9912011c
DTITLE=Patti Page - All my love
DYEAR=2003
DGENRE=
TTITLE0=All my love - bolero
TTITLE1=The Tennessee Waltz
TTITLE2=Confess
TTITLE3=Streets of Laredo
TTITLE4=Cabaret
TTITLE5=Whispering
TTITLE6=With my eyes wide open I'm dreeming
TTITLE7=I don't care if the sun don't shine
TTITLE8=Back in your own backyard
TTITLE9=Once in a while
TTITLE10=I love you because
TTITLE11=Long, long ago
TTITLE12=Would I love you, love you, love you7
TTITLE13=Down the trail of Achin' hearts
TTITLE14=Ever true, evermore
TTITLE15=Mockin' Bird Hill
TTITLE16=Mister and Mississipi
TTITLE17=These things I offer you
TTITLE18=Detour
TTITLE19=Come what may
TTITLE20=Retreat, cries my heart
TTITLE21=You belong to me
TTITLE22=I went to your wedding
TTITLE23=Conquest
TTITLE24=One sweet letter
TTITLE25=And so to sleep again
TTITLE26=Why don't you believe me7
TTITLE27=That doggie in the window
EXTD=
EXTT0=
EXTT1=
EXTT2=
EXTT3=
EXTT4=
EXTT5=
EXTT6=
EXTT7=
EXTT8=
EXTT9=
EXTT10=
EXTT11=
EXTT12=
EXTT13=
EXTT14=
EXTT15=
EXTT16=
EXTT17=
EXTT18=
EXTT19=
EXTT20=
EXTT21=
EXTT22=
EXTT23=
EXTT24=
EXTT25=
EXTT26=
EXTT27=
PLAYORDER=
